<?xml version="1.0" encoding="UTF-8" standalone="no"?>
<!-- Uploaded to: SVG Repo, www.svgrepo.com, Generator: SVG Repo Mixer Tools -->

<svg
   height="852.4046"
   width="886.88977"
   version="1.1"
   id="Capa_1"
   viewBox="0 0 53.146869 51.080346"
   xml:space="preserve"
   sodipodi:docname="star-half.svg"
   inkscape:version="1.2.2 (b0a8486, 2022-12-01)"
   xmlns:inkscape="http://www.inkscape.org/namespaces/inkscape"
   xmlns:sodipodi="http://sodipodi.sourceforge.net/DTD/sodipodi-0.dtd"
   xmlns:xlink="http://www.w3.org/1999/xlink"
   xmlns="http://www.w3.org/2000/svg"
   xmlns:svg="http://www.w3.org/2000/svg"><defs
   id="defs137"><linearGradient
     inkscape:collect="always"
     id="linearGradient1355"><stop
       style="stop-color:#e3e200;stop-opacity:1;"
       offset="0.5"
       id="stop1351" /><stop
       style="stop-color:#e3e200;stop-opacity:0;"
       offset="0.5"
       id="stop1353" /></linearGradient><linearGradient
     inkscape:collect="always"
     xlink:href="#linearGradient1355"
     id="linearGradient1357"
     x1="-2.6028185"
     y1="24.007381"
     x2="50.544052"
     y2="24.007381"
     gradientUnits="userSpaceOnUse"
     gradientTransform="translate(2.6028184,1.5327905)" /></defs><sodipodi:namedview
   id="namedview135"
   pagecolor="#ffffff"
   bordercolor="#000000"
   borderopacity="0.25"
   inkscape:showpageshadow="2"
   inkscape:pageopacity="0.0"
   inkscape:pagecheckerboard="0"
   inkscape:deskcolor="#d1d1d1"
   showgrid="false"
   inkscape:zoom="0.1233733"
   inkscape:cx="8.1054815"
   inkscape:cy="85.107556"
   inkscape:window-width="1309"
   inkscape:window-height="663"
   inkscape:window-x="0"
   inkscape:window-y="25"
   inkscape:window-maximized="0"
   inkscape:current-layer="Capa_1" />
<path
   style="fill:url(#linearGradient1357);fill-opacity:1;stroke:#000000;stroke-width:5.39325;stroke-linejoin:round;stroke-dasharray:none;stroke-opacity:1;paint-order:normal"
   d="m 28.887818,4.0187905 5.407,10.9559995 c 0.376,0.762 1.103,1.29 1.944,1.412 l 12.091,1.757 c 2.118,0.308 2.963,2.91 1.431,4.403 l -8.749,8.528 c -0.608,0.593 -0.886,1.448 -0.742,2.285 l 2.065,12.042 c 0.362,2.109 -1.852,3.717 -3.746,2.722 l -10.814,-5.685 c -0.752,-0.395 -1.651,-0.395 -2.403,0 l -10.814,5.685 c -1.894,0.996 -4.108,-0.613 -3.746,-2.722 l 2.065,-12.042 c 0.144,-0.837 -0.134,-1.692 -0.742,-2.285 l -8.7489996,-8.528 c -1.532,-1.494 -0.687,-4.096 1.431,-4.403 l 12.0909996,-1.757 c 0.841,-0.122 1.568,-0.65 1.944,-1.412 l 5.407,-10.9559995 c 0.946,-1.919 3.682,-1.919 4.629,0 z"
   id="path132" />
</svg>
