<?xml version="1.0" encoding="UTF-8" standalone="no"?>
<!-- Created with Inkscape (http://www.inkscape.org/) -->

<svg
   width="190.77733mm"
   height="184.10008mm"
   viewBox="0 0 190.77733 184.10008"
   version="1.1"
   id="svg5"
   inkscape:version="1.2.2 (b0a8486, 2022-12-01)"
   sodipodi:docname="thumbs-up.svg"
   xmlns:inkscape="http://www.inkscape.org/namespaces/inkscape"
   xmlns:sodipodi="http://sodipodi.sourceforge.net/DTD/sodipodi-0.dtd"
   xmlns="http://www.w3.org/2000/svg"
   xmlns:svg="http://www.w3.org/2000/svg">
  <sodipodi:namedview
     id="namedview7"
     pagecolor="#ffffff"
     bordercolor="#000000"
     borderopacity="0.25"
     inkscape:showpageshadow="2"
     inkscape:pageopacity="0.0"
     inkscape:pagecheckerboard="0"
     inkscape:deskcolor="#d1d1d1"
     inkscape:document-units="mm"
     showgrid="false"
     inkscape:zoom="0.38889529"
     inkscape:cx="174.85427"
     inkscape:cy="226.28199"
     inkscape:window-width="1309"
     inkscape:window-height="682"
     inkscape:window-x="0"
     inkscape:window-y="25"
     inkscape:window-maximized="0"
     inkscape:current-layer="layer1" />
  <defs
     id="defs2" />
  <g
     inkscape:label="Layer 1"
     inkscape:groupmode="layer"
     id="layer1"
     transform="translate(-4.6451225,-8.8326339)">
    <rect
       style="fill:#00ff6c;stroke:#000000;stroke-width:20;stroke-linejoin:round;stroke-miterlimit:20;stroke-dasharray:none;fill-opacity:1"
       id="rect6255"
       width="45.710537"
       height="103.36685"
       x="14.645123"
       y="79.565857" />
    <path
       style="fill:#00ff6c;stroke:#000000;stroke-width:20;stroke-linejoin:round;stroke-miterlimit:20;stroke-dasharray:none;fill-opacity:1"
       d="m 60.404282,92.802095 c 0,0 39.751318,-16.608703 46.093628,-39.776588 6.34232,-23.167885 16.27111,-34.008029 27.42427,-34.19134 11.15316,-0.183311 16.40738,17.742013 13.3259,22.265812 -3.08148,4.523799 -16.66752,39.427591 -3.17134,38.526892 32.71604,-0.63222 49.1867,-0.13331 37.55025,13.599894 -11.63645,13.733205 11.88887,14.505315 -2.24303,27.976715 -14.13189,13.4714 12.71331,15.39519 1.20154,27.78265 -11.51178,12.38747 5.08715,16.16047 -2.91767,29.38716 -8.00482,13.22669 -116.199993,-6.53197 -116.199993,-6.53197 z"
       id="path6257"
       sodipodi:nodetypes="czzzczzzzcc" />
  </g>
</svg>
